<svg xmlns="http://www.w3.org/2000/svg" xmlns:xlink="http://www.w3.org/1999/xlink" version="1.1" x="0px" y="0px" viewBox="0 0 100 125" enable-background="new 0 0 100 100" xml:space="preserve"><g><path d="M87.438,39.496c-0.098-0.178-0.205-0.334-0.332-0.462c-0.043-0.045-0.115-0.111-0.201-0.194   c-0.438-0.494-0.922-0.942-1.473-1.31c-6.52-5.72-29.396-25.161-31.689-27.49c-1.715-1.738-5.803-1.711-7.518,0   c-1.791,1.785-27.438,23.522-32.476,28.16c-0.19,0.169-0.379,0.333-0.552,0.52c-0.066,0.066-0.145,0.139-0.188,0.188   c-0.08,0.084-0.153,0.2-0.224,0.319c-1.068,1.36-1.733,3.058-1.733,4.938v36.622c0,4.396,3.513,7.96,7.843,7.96h62.217   c4.332,0,7.838-3.562,7.838-7.96V44.165C88.949,42.412,88.379,40.811,87.438,39.496z M52.604,70.104   c-1.188,1.188-4.035,1.211-5.229,0c-0.546-0.553-2.842-2.885-5.811-5.904h16.869C55.359,67.316,53.02,69.689,52.604,70.104z    M76.758,45.536c-0.829,0.877-7.865,8.041-14.146,14.419c-0.006,0-0.01-0.005-0.018-0.005H37.388   c-6.375-6.479-13.515-13.743-14.114-14.36c-1.312-1.347,0.357-3.943,2.605-3.943h48.289C76.645,41.646,77.842,44.388,76.758,45.536   z M62.595,49.336h-25.75c-1.155,0-2.093,0.952-2.093,2.125c0,1.172,0.938,2.121,2.093,2.121h25.75c1.154,0,2.091-0.949,2.091-2.121   S63.749,49.336,62.595,49.336z"/></g><text x="0" y="115" fill="#000000" font-size="5px" font-weight="bold" font-family="'Helvetica Neue', Helvetica, Arial-Unicode, Arial, Sans-serif">Created by Ian Mawle</text><text x="0" y="120" fill="#000000" font-size="5px" font-weight="bold" font-family="'Helvetica Neue', Helvetica, Arial-Unicode, Arial, Sans-serif">from the Noun Project</text></svg>